<?xml version="1.0" standalone="no"?>
<!DOCTYPE svg PUBLIC "-//W3C//DTD SVG 20010904//EN"
 "http://www.w3.org/TR/2001/REC-SVG-20010904/DTD/svg10.dtd">
<svg version="1.0" xmlns="http://www.w3.org/2000/svg"
 width="512.000000pt" height="512.000000pt" viewBox="0 0 512.000000 512.000000"
 preserveAspectRatio="xMidYMid meet">

<g transform="translate(0.000000,512.000000) scale(0.100000,-0.100000)"
fill="#000000" stroke="none">
<path d="M2320 4879 c-554 -62 -1034 -297 -1420 -696 -283 -291 -474 -629
-574 -1013 -49 -190 -67 -317 -73 -530 -33 -1136 773 -2128 1891 -2330 166
-30 168 -23 6 15 -386 91 -569 186 -793 412 -267 270 -409 603 -394 928 10
201 48 315 237 705 128 263 184 413 202 540 7 44 15 80 19 80 11 0 76 -158 98
-237 11 -40 25 -116 31 -170 6 -54 14 -117 16 -141 3 -23 9 -40 15 -37 5 4 53
66 108 138 322 432 498 784 568 1135 12 60 17 136 17 243 l0 157 51 -22 c139
-62 271 -159 420 -310 233 -235 385 -495 510 -870 l53 -159 32 44 c71 97 95
196 88 362 -4 82 -12 131 -30 185 -13 39 -20 72 -15 72 17 0 212 -204 294
-307 231 -290 408 -646 467 -933 131 -644 -157 -1199 -850 -1638 -130 -83
-229 -134 -344 -178 -100 -39 -95 -41 36 -14 153 31 278 68 402 116 786 306
1329 990 1459 1834 24 157 24 481 0 640 -74 489 -283 922 -614 1270 -377 397
-867 642 -1411 705 -135 16 -378 18 -502 4z"/>
<path d="M2498 2449 c-416 -32 -785 -307 -907 -673 -61 -184 -64 -344 -11
-551 66 -260 301 -554 697 -872 l91 -74 89 -10 c89 -11 267 -5 335 10 82 19
519 426 662 616 84 112 161 267 183 365 24 109 24 352 -1 445 -43 163 -147
338 -271 454 -230 215 -531 315 -867 290z m234 -956 l3 -488 125 121 c69 67
135 126 147 133 31 16 89 14 124 -4 59 -31 88 -125 56 -183 -7 -12 -122 -128
-256 -257 -165 -159 -254 -238 -278 -246 -74 -24 -86 -16 -359 247 -206 199
-255 252 -264 283 -31 116 96 213 197 151 18 -11 84 -70 148 -131 l115 -112 0
480 c0 264 3 483 7 486 3 4 57 7 120 7 l113 0 2 -487z"/>
</g>
</svg>
